Coordinates
version=1
nRows=7
nColumns=38
inDegrees=yes

Units are S.I. units (second, meters, Newtons, ...)
Angles are in degrees.

endheader
time	pelvis_tilt	pelvis_list	pelvis_rotation	pelvis_tx	pelvis_ty	pelvis_tz	hip_flexion_r	hip_adduction_r	hip_rotation_r	knee_angle_r	ankle_angle_r	subtalar_angle_r	mtp_angle_r	hip_flexion_l	hip_adduction_l	hip_rotation_l	knee_angle_l	ankle_angle_l	subtalar_angle_l	mtp_angle_l	lumbar_extension	lumbar_bending	lumbar_rotation	arm_flex_r	arm_add_r	arm_rot_r	elbow_flex_r	pro_sup_r	wrist_flex_r	wrist_dev_r	arm_flex_l	arm_add_l	arm_rot_l	elbow_flex_l	pro_sup_l	wrist_flex_l	wrist_dev_l
      2.35000000	      1.07153049	     -6.78440033	      2.11577521	     -0.34592242	      0.90326973	      0.25671013	     19.80630340	     10.63325868	     -5.37765697	    -26.74230354	      0.20973052	     -8.56055045	      8.21218078	      1.59255781	     -6.31730717	      4.59997861	    -58.60596250	    -14.71760141	      2.17638808	     34.27830055	     -4.51870824	      9.98646175	     -6.60749857	     -7.11520049	    -17.88185159	     11.94791049	     21.20782836	     86.51662706	      0.00000000	      0.00000000	     -3.18446596	    -14.98389965	     12.12712453	     29.25797610	     85.94366927	      0.00000000	      0.00000000
      2.36000000	      1.14566850	     -6.70459087	      2.44727735	     -0.33386928	      0.90542582	      0.25715851	     18.54010121	     10.50661993	     -5.94600513	    -26.18856516	      1.12104583	     -7.64183167	      7.72039785	      3.62338656	     -5.92045784	      5.31972542	    -60.49763798	    -13.04294117	      1.67236389	     33.02454189	     -4.71264161	      9.90713886	     -6.46259480	     -6.83721196	    -18.03339197	     12.12085416	     21.87158600	     86.51662706	      0.00000000	      0.00000000	     -3.07388123	    -14.89936003	     12.71746552	     28.70291337	     85.94366927	      0.00000000	      0.00000000
      2.37000000	      1.19725353	     -6.54107285	      2.75080493	     -0.32186848	      0.90763447	      0.25761755	     17.25746282	     10.30841169	     -6.50855075	    -25.55606688	      1.94380582	     -6.70808432	      7.24583515	      5.62574955	     -5.40090161	      5.97551506	    -61.98515790	    -11.27797935	      1.26983386	     32.12711383	     -4.88317154	      9.72355057	     -6.29138506	     -6.55754131	    -18.18765807	     12.29987857	     22.55489874	     86.51662706	      0.00000000	      0.00000000	     -2.98214265	    -14.83423611	     13.29056794	     28.14382563	     85.94366927	      0.00000000	      0.00000000
      2.38000000	      1.22357607	     -6.30523067	      3.00346604	     -0.30984386	      0.90985758	      0.25810943	     15.96672799	     10.06041638	     -7.00451725	    -24.86851069	      2.68770443	     -5.80090755	      6.79453779	      7.57603852	     -4.79006453	      6.52831616	    -63.06518593	     -9.52037341	      0.93466710	     31.55035256	     -5.02523686	      9.44877618	     -6.07790654	     -6.28021955	    -18.34379482	     12.47586182	     23.25406511	     86.51662706	      0.00000000	      0.00000000	     -2.93016601	    -14.78385525	     13.81798575	     27.59549437	     85.94366927	      0.00000000	      0.00000000
      2.39000000	      1.22431626	     -6.00988331	      3.18881956	     -0.29777071	      0.91206061	      0.25865240	     14.67411620	      9.78188026	     -7.37878935	    -24.14503732	      3.36252230	     -4.95954001	      6.36987321	      9.45776427	     -4.12528034	      6.94298771	    -63.74642027	     -7.83413003	      0.62251050	     31.22528925	     -5.13906489	      9.09888232	     -5.81135266	     -6.00706729	    -18.50177230	     12.63857077	     23.96724594	     86.51662706	      0.00000000	      0.00000000	     -2.93085299	    -14.74298221	     14.27615399	     27.07029245	     85.94366927	      0.00000000	      0.00000000
      2.40000000	      1.20164612	     -5.66876101	      3.29612717	     -0.28566259	      0.91420531	      0.25926920	     13.38560878	      9.48938290	     -7.58986324	    -23.39953847	      3.97723538	     -4.21719376	      5.97287145	     11.26161507	     -3.44518204	      7.19379107	    -64.04377776	     -6.25619960	      0.28784277	     31.06069363	     -5.22905650	      8.69067746	     -5.48662922	     -5.73770738	    -18.66279135	     12.77809251	     24.69401100	     86.51662706	      0.00000000	      0.00000000	     -2.98835872	    -14.70669080	     14.64845289	     26.57629766	     85.94366927	      0.00000000	      0.00000000
      2.41000000	      1.15993956	     -5.29609950	      3.32021954	     -0.27354922	      0.91623852	      0.25999262	     12.10746020	      9.19705168	     -7.61603864	    -22.64164408	      4.54035102	     -3.59730496	      5.60293944	     12.98279373	     -2.78426208	      7.26933934	    -63.97483080	     -4.80575936	     -0.10755733	     30.95515851	     -5.30193111	      8.24062749	     -5.10399801	     -5.47005364	    -18.82925722	     12.88619792	     25.43463785	     86.51662706	      0.00000000	      0.00000000	     -3.09920429	    -14.67118442	     14.92636844	     26.11628183	     85.94366927	      0.00000000	      0.00000000
